<mxfile host="app.diagrams.net" modified="2021-02-27T08:16:06.139Z" agent="5.0 (Windows NT 10.0; Win64; x64) AppleWebKit/537.36 (KHTML, like Gecko) Chrome/88.0.4324.182 Safari/537.36 Edg/88.0.705.74" etag="dHYy-aa1bUuUYbhgWcQ2" version="14.4.3" type="github">
  <diagram id="LPUY9Yh5iCmejDsE-yMz" name="Page-1">
    <mxGraphModel dx="2595" dy="1450" grid="1" gridSize="10" guides="1" tooltips="1" connect="1" arrows="1" fold="1" page="1" pageScale="1" pageWidth="827" pageHeight="1169" math="0" shadow="0">
      <root>
        <mxCell id="0" />
        <mxCell id="1" parent="0" />
        <mxCell id="FQN_f8L04oHf75iB1t_o-3" style="edgeStyle=orthogonalEdgeStyle;rounded=0;orthogonalLoop=1;jettySize=auto;html=1;entryX=0;entryY=0.5;entryDx=0;entryDy=0;" parent="1" source="FQN_f8L04oHf75iB1t_o-1" target="FQN_f8L04oHf75iB1t_o-2" edge="1">
          <mxGeometry relative="1" as="geometry" />
        </mxCell>
        <mxCell id="FQN_f8L04oHf75iB1t_o-1" value="" style="ellipse;whiteSpace=wrap;html=1;aspect=fixed;" parent="1" vertex="1">
          <mxGeometry x="100" y="360" width="80" height="80" as="geometry" />
        </mxCell>
        <mxCell id="FQN_f8L04oHf75iB1t_o-6" style="edgeStyle=orthogonalEdgeStyle;rounded=0;orthogonalLoop=1;jettySize=auto;html=1;entryX=0;entryY=0.5;entryDx=0;entryDy=0;" parent="1" source="FQN_f8L04oHf75iB1t_o-2" edge="1">
          <mxGeometry relative="1" as="geometry">
            <mxPoint x="490" y="400" as="targetPoint" />
          </mxGeometry>
        </mxCell>
        <mxCell id="FQN_f8L04oHf75iB1t_o-2" value="Клиент авторизовался на сайте" style="rounded=0;whiteSpace=wrap;html=1;" parent="1" vertex="1">
          <mxGeometry x="280" y="370" width="120" height="60" as="geometry" />
        </mxCell>
        <mxCell id="FQN_f8L04oHf75iB1t_o-4" value="&lt;font&gt;&lt;span style=&quot;font-size: 24px&quot;&gt;Бизнес-процесс Клиента (фронт)&lt;/span&gt;&lt;br&gt;&lt;span id=&quot;docs-internal-guid-454e0e27-7fff-5288-7b2e-33ac58e89149&quot;&gt;&lt;span style=&quot;font-family: &amp;#34;proxima nova&amp;#34; , sans-serif ; background-color: transparent ; vertical-align: baseline&quot;&gt;&lt;font style=&quot;font-size: 24px&quot;&gt;Кейс такси&lt;/font&gt;&lt;/span&gt;&lt;/span&gt;&lt;br&gt;&lt;/font&gt;" style="text;html=1;strokeColor=none;fillColor=none;align=center;verticalAlign=middle;whiteSpace=wrap;rounded=0;" parent="1" vertex="1">
          <mxGeometry x="630" y="130" width="470" height="60" as="geometry" />
        </mxCell>
        <mxCell id="FQN_f8L04oHf75iB1t_o-11" style="edgeStyle=orthogonalEdgeStyle;rounded=0;orthogonalLoop=1;jettySize=auto;html=1;entryX=0;entryY=0.5;entryDx=0;entryDy=0;" parent="1" source="FQN_f8L04oHf75iB1t_o-8" target="FQN_f8L04oHf75iB1t_o-18" edge="1">
          <mxGeometry relative="1" as="geometry">
            <mxPoint x="670" y="400" as="targetPoint" />
          </mxGeometry>
        </mxCell>
        <mxCell id="FQN_f8L04oHf75iB1t_o-8" value="Просмотр каталога товаров" style="rounded=0;whiteSpace=wrap;html=1;" parent="1" vertex="1">
          <mxGeometry x="490" y="370" width="120" height="60" as="geometry" />
        </mxCell>
        <mxCell id="FQN_f8L04oHf75iB1t_o-15" style="edgeStyle=orthogonalEdgeStyle;rounded=0;orthogonalLoop=1;jettySize=auto;html=1;entryX=1;entryY=0.5;entryDx=0;entryDy=0;exitX=0.5;exitY=1;exitDx=0;exitDy=0;" parent="1" source="FQN_f8L04oHf75iB1t_o-23" target="FQN_f8L04oHf75iB1t_o-16" edge="1">
          <mxGeometry relative="1" as="geometry">
            <mxPoint x="1000" y="525" as="targetPoint" />
            <Array as="points">
              <mxPoint x="1060" y="563" />
              <mxPoint x="960" y="563" />
            </Array>
          </mxGeometry>
        </mxCell>
        <mxCell id="FQN_f8L04oHf75iB1t_o-24" style="edgeStyle=orthogonalEdgeStyle;rounded=0;orthogonalLoop=1;jettySize=auto;html=1;" parent="1" source="FQN_f8L04oHf75iB1t_o-9" target="FQN_f8L04oHf75iB1t_o-23" edge="1">
          <mxGeometry relative="1" as="geometry">
            <mxPoint x="1000" y="400" as="targetPoint" />
          </mxGeometry>
        </mxCell>
        <mxCell id="FQN_f8L04oHf75iB1t_o-9" value="Выбор товара и помещение его в корзину" style="rounded=0;whiteSpace=wrap;html=1;" parent="1" vertex="1">
          <mxGeometry x="840" y="370" width="120" height="60" as="geometry" />
        </mxCell>
        <mxCell id="FQN_f8L04oHf75iB1t_o-12" value="&lt;font style=&quot;font-size: 18px&quot;&gt;Шаг №1&lt;/font&gt;" style="text;html=1;strokeColor=none;fillColor=none;align=center;verticalAlign=middle;whiteSpace=wrap;rounded=0;" parent="1" vertex="1">
          <mxGeometry x="302" y="310" width="76" height="40" as="geometry" />
        </mxCell>
        <mxCell id="FQN_f8L04oHf75iB1t_o-13" value="&lt;font style=&quot;font-size: 18px&quot;&gt;Шаг №2&lt;/font&gt;" style="text;html=1;strokeColor=none;fillColor=none;align=center;verticalAlign=middle;whiteSpace=wrap;rounded=0;" parent="1" vertex="1">
          <mxGeometry x="512" y="310" width="76" height="40" as="geometry" />
        </mxCell>
        <mxCell id="FQN_f8L04oHf75iB1t_o-14" value="&lt;font style=&quot;font-size: 18px&quot;&gt;Шаг №3&lt;/font&gt;" style="text;html=1;strokeColor=none;fillColor=none;align=center;verticalAlign=middle;whiteSpace=wrap;rounded=0;" parent="1" vertex="1">
          <mxGeometry x="861" y="305" width="76" height="40" as="geometry" />
        </mxCell>
        <mxCell id="FQN_f8L04oHf75iB1t_o-20" style="edgeStyle=orthogonalEdgeStyle;rounded=0;orthogonalLoop=1;jettySize=auto;html=1;entryX=0.5;entryY=1;entryDx=0;entryDy=0;" parent="1" source="FQN_f8L04oHf75iB1t_o-16" target="FQN_f8L04oHf75iB1t_o-18" edge="1">
          <mxGeometry relative="1" as="geometry" />
        </mxCell>
        <mxCell id="FQN_f8L04oHf75iB1t_o-16" value="Покупатель &quot;сомневается&quot;, в корзине происходит перерасчет суммы заказа" style="rounded=0;whiteSpace=wrap;html=1;" parent="1" vertex="1">
          <mxGeometry x="840" y="525" width="120" height="75" as="geometry" />
        </mxCell>
        <mxCell id="FQN_f8L04oHf75iB1t_o-17" value="&lt;font style=&quot;font-size: 18px&quot;&gt;Шаг №3.1&lt;/font&gt;" style="text;html=1;strokeColor=none;fillColor=none;align=center;verticalAlign=middle;whiteSpace=wrap;rounded=0;" parent="1" vertex="1">
          <mxGeometry x="850" y="485" width="87" height="40" as="geometry" />
        </mxCell>
        <mxCell id="FQN_f8L04oHf75iB1t_o-19" style="edgeStyle=orthogonalEdgeStyle;rounded=0;orthogonalLoop=1;jettySize=auto;html=1;exitX=1;exitY=0.5;exitDx=0;exitDy=0;entryX=0;entryY=0.5;entryDx=0;entryDy=0;" parent="1" source="FQN_f8L04oHf75iB1t_o-18" target="FQN_f8L04oHf75iB1t_o-9" edge="1">
          <mxGeometry relative="1" as="geometry" />
        </mxCell>
        <mxCell id="FQN_f8L04oHf75iB1t_o-18" value="" style="rhombus;whiteSpace=wrap;html=1;" parent="1" vertex="1">
          <mxGeometry x="700" y="360" width="80" height="80" as="geometry" />
        </mxCell>
        <mxCell id="FQN_f8L04oHf75iB1t_o-26" style="edgeStyle=orthogonalEdgeStyle;rounded=0;orthogonalLoop=1;jettySize=auto;html=1;entryX=0;entryY=0.5;entryDx=0;entryDy=0;" parent="1" source="FQN_f8L04oHf75iB1t_o-23" target="FQN_f8L04oHf75iB1t_o-25" edge="1">
          <mxGeometry relative="1" as="geometry" />
        </mxCell>
        <mxCell id="FQN_f8L04oHf75iB1t_o-23" value="" style="rhombus;whiteSpace=wrap;html=1;" parent="1" vertex="1">
          <mxGeometry x="1020" y="360" width="80" height="80" as="geometry" />
        </mxCell>
        <mxCell id="FQN_f8L04oHf75iB1t_o-29" style="edgeStyle=orthogonalEdgeStyle;rounded=0;orthogonalLoop=1;jettySize=auto;html=1;" parent="1" source="FQN_f8L04oHf75iB1t_o-25" target="FQN_f8L04oHf75iB1t_o-28" edge="1">
          <mxGeometry relative="1" as="geometry" />
        </mxCell>
        <mxCell id="FQN_f8L04oHf75iB1t_o-25" value="Выбор покупателем способа доставки&amp;nbsp;" style="rounded=0;whiteSpace=wrap;html=1;" parent="1" vertex="1">
          <mxGeometry x="1181" y="370" width="120" height="60" as="geometry" />
        </mxCell>
        <mxCell id="FQN_f8L04oHf75iB1t_o-27" value="&lt;font style=&quot;font-size: 18px&quot;&gt;Шаг №4&lt;/font&gt;" style="text;html=1;strokeColor=none;fillColor=none;align=center;verticalAlign=middle;whiteSpace=wrap;rounded=0;" parent="1" vertex="1">
          <mxGeometry x="1203" y="305" width="76" height="40" as="geometry" />
        </mxCell>
        <mxCell id="FQN_f8L04oHf75iB1t_o-31" style="edgeStyle=orthogonalEdgeStyle;rounded=0;orthogonalLoop=1;jettySize=auto;html=1;exitX=0.5;exitY=1;exitDx=0;exitDy=0;entryX=0;entryY=0.5;entryDx=0;entryDy=0;" parent="1" source="FQN_f8L04oHf75iB1t_o-28" target="FQN_f8L04oHf75iB1t_o-30" edge="1">
          <mxGeometry relative="1" as="geometry" />
        </mxCell>
        <mxCell id="FQN_f8L04oHf75iB1t_o-33" style="edgeStyle=orthogonalEdgeStyle;rounded=0;orthogonalLoop=1;jettySize=auto;html=1;exitX=1;exitY=0.5;exitDx=0;exitDy=0;entryX=0;entryY=0.5;entryDx=0;entryDy=0;" parent="1" source="FQN_f8L04oHf75iB1t_o-28" target="FQN_f8L04oHf75iB1t_o-32" edge="1">
          <mxGeometry relative="1" as="geometry" />
        </mxCell>
        <mxCell id="FQN_f8L04oHf75iB1t_o-36" style="edgeStyle=orthogonalEdgeStyle;rounded=0;orthogonalLoop=1;jettySize=auto;html=1;entryX=0;entryY=0.5;entryDx=0;entryDy=0;" parent="1" source="FQN_f8L04oHf75iB1t_o-28" target="FQN_f8L04oHf75iB1t_o-37" edge="1">
          <mxGeometry relative="1" as="geometry">
            <mxPoint x="1420" y="230" as="targetPoint" />
            <Array as="points">
              <mxPoint x="1420" y="240" />
            </Array>
          </mxGeometry>
        </mxCell>
        <mxCell id="FQN_f8L04oHf75iB1t_o-28" value="" style="rhombus;whiteSpace=wrap;html=1;" parent="1" vertex="1">
          <mxGeometry x="1380" y="360" width="80" height="80" as="geometry" />
        </mxCell>
        <mxCell id="FQN_f8L04oHf75iB1t_o-41" style="edgeStyle=orthogonalEdgeStyle;rounded=0;orthogonalLoop=1;jettySize=auto;html=1;entryX=0.5;entryY=1;entryDx=0;entryDy=0;" parent="1" source="FQN_f8L04oHf75iB1t_o-30" target="FQN_f8L04oHf75iB1t_o-38" edge="1">
          <mxGeometry relative="1" as="geometry" />
        </mxCell>
        <mxCell id="FQN_f8L04oHf75iB1t_o-30" value="Доставка на такси" style="rounded=0;whiteSpace=wrap;html=1;" parent="1" vertex="1">
          <mxGeometry x="1530" y="500" width="120" height="60" as="geometry" />
        </mxCell>
        <mxCell id="FQN_f8L04oHf75iB1t_o-40" style="edgeStyle=orthogonalEdgeStyle;rounded=0;orthogonalLoop=1;jettySize=auto;html=1;entryX=0;entryY=0.5;entryDx=0;entryDy=0;" parent="1" source="FQN_f8L04oHf75iB1t_o-32" target="FQN_f8L04oHf75iB1t_o-38" edge="1">
          <mxGeometry relative="1" as="geometry" />
        </mxCell>
        <mxCell id="FQN_f8L04oHf75iB1t_o-32" value="Доставка иными службами (курьерские, собственные)" style="rounded=0;whiteSpace=wrap;html=1;" parent="1" vertex="1">
          <mxGeometry x="1530" y="370" width="120" height="60" as="geometry" />
        </mxCell>
        <mxCell id="FQN_f8L04oHf75iB1t_o-34" value="&lt;font style=&quot;font-size: 18px&quot;&gt;Шаг №4.3&lt;/font&gt;" style="text;html=1;strokeColor=none;fillColor=none;align=center;verticalAlign=middle;whiteSpace=wrap;rounded=0;" parent="1" vertex="1">
          <mxGeometry x="1540" y="460" width="100" height="40" as="geometry" />
        </mxCell>
        <mxCell id="FQN_f8L04oHf75iB1t_o-35" value="&lt;font style=&quot;font-size: 18px&quot;&gt;Шаг №4.2&lt;/font&gt;" style="text;html=1;strokeColor=none;fillColor=none;align=center;verticalAlign=middle;whiteSpace=wrap;rounded=0;" parent="1" vertex="1">
          <mxGeometry x="1540" y="330" width="100" height="40" as="geometry" />
        </mxCell>
        <mxCell id="FQN_f8L04oHf75iB1t_o-42" style="edgeStyle=orthogonalEdgeStyle;rounded=0;orthogonalLoop=1;jettySize=auto;html=1;" parent="1" source="FQN_f8L04oHf75iB1t_o-37" edge="1">
          <mxGeometry relative="1" as="geometry">
            <mxPoint x="1740" y="240" as="targetPoint" />
          </mxGeometry>
        </mxCell>
        <mxCell id="FQN_f8L04oHf75iB1t_o-37" value="Самовывоз" style="rounded=0;whiteSpace=wrap;html=1;" parent="1" vertex="1">
          <mxGeometry x="1530" y="210" width="120" height="60" as="geometry" />
        </mxCell>
        <mxCell id="FQN_f8L04oHf75iB1t_o-43" style="edgeStyle=orthogonalEdgeStyle;rounded=0;orthogonalLoop=1;jettySize=auto;html=1;" parent="1" source="FQN_f8L04oHf75iB1t_o-38" edge="1">
          <mxGeometry relative="1" as="geometry">
            <mxPoint x="1880" y="400" as="targetPoint" />
          </mxGeometry>
        </mxCell>
        <mxCell id="FQN_f8L04oHf75iB1t_o-38" value="" style="rhombus;whiteSpace=wrap;html=1;" parent="1" vertex="1">
          <mxGeometry x="1730" y="360" width="80" height="80" as="geometry" />
        </mxCell>
        <mxCell id="FQN_f8L04oHf75iB1t_o-39" value="&lt;font style=&quot;font-size: 18px&quot;&gt;Шаг №4.1&lt;/font&gt;" style="text;html=1;strokeColor=none;fillColor=none;align=center;verticalAlign=middle;whiteSpace=wrap;rounded=0;" parent="1" vertex="1">
          <mxGeometry x="1540" y="170" width="100" height="40" as="geometry" />
        </mxCell>
        <mxCell id="FQN_f8L04oHf75iB1t_o-49" style="edgeStyle=orthogonalEdgeStyle;rounded=0;orthogonalLoop=1;jettySize=auto;html=1;" parent="1" source="FQN_f8L04oHf75iB1t_o-44" edge="1">
          <mxGeometry relative="1" as="geometry">
            <mxPoint x="2090" y="400" as="targetPoint" />
          </mxGeometry>
        </mxCell>
        <mxCell id="FQN_f8L04oHf75iB1t_o-44" value="Расчет оплаты заказа" style="rounded=0;whiteSpace=wrap;html=1;" parent="1" vertex="1">
          <mxGeometry x="1880" y="370" width="120" height="60" as="geometry" />
        </mxCell>
        <mxCell id="FQN_f8L04oHf75iB1t_o-45" value="&lt;font style=&quot;font-size: 18px&quot;&gt;Шаг №5&lt;/font&gt;" style="text;html=1;strokeColor=none;fillColor=none;align=center;verticalAlign=middle;whiteSpace=wrap;rounded=0;" parent="1" vertex="1">
          <mxGeometry x="1890" y="430" width="100" height="40" as="geometry" />
        </mxCell>
        <mxCell id="FQN_f8L04oHf75iB1t_o-47" style="edgeStyle=orthogonalEdgeStyle;rounded=0;orthogonalLoop=1;jettySize=auto;html=1;" parent="1" source="FQN_f8L04oHf75iB1t_o-46" target="FQN_f8L04oHf75iB1t_o-44" edge="1">
          <mxGeometry relative="1" as="geometry" />
        </mxCell>
        <mxCell id="FQN_f8L04oHf75iB1t_o-46" value="Выбор магазина" style="rounded=0;whiteSpace=wrap;html=1;" parent="1" vertex="1">
          <mxGeometry x="1740" y="210" width="120" height="60" as="geometry" />
        </mxCell>
        <mxCell id="FQN_f8L04oHf75iB1t_o-48" value="&lt;font style=&quot;font-size: 18px&quot;&gt;Шаг №4.1.1&lt;/font&gt;" style="text;html=1;strokeColor=none;fillColor=none;align=center;verticalAlign=middle;whiteSpace=wrap;rounded=0;" parent="1" vertex="1">
          <mxGeometry x="1750" y="170" width="120" height="40" as="geometry" />
        </mxCell>
        <mxCell id="FQN_f8L04oHf75iB1t_o-50" value="" style="ellipse;whiteSpace=wrap;html=1;aspect=fixed;strokeWidth=5;" parent="1" vertex="1">
          <mxGeometry x="2300" y="360" width="80" height="80" as="geometry" />
        </mxCell>
        <mxCell id="FQN_f8L04oHf75iB1t_o-53" style="edgeStyle=orthogonalEdgeStyle;rounded=0;orthogonalLoop=1;jettySize=auto;html=1;entryX=0;entryY=0.5;entryDx=0;entryDy=0;" parent="1" source="FQN_f8L04oHf75iB1t_o-51" target="FQN_f8L04oHf75iB1t_o-50" edge="1">
          <mxGeometry relative="1" as="geometry" />
        </mxCell>
        <mxCell id="FQN_f8L04oHf75iB1t_o-51" value="Оплата заказа" style="rounded=0;whiteSpace=wrap;html=1;" parent="1" vertex="1">
          <mxGeometry x="2090" y="370" width="120" height="60" as="geometry" />
        </mxCell>
        <mxCell id="FQN_f8L04oHf75iB1t_o-52" value="&lt;font style=&quot;font-size: 18px&quot;&gt;Шаг №6&lt;/font&gt;" style="text;html=1;strokeColor=none;fillColor=none;align=center;verticalAlign=middle;whiteSpace=wrap;rounded=0;" parent="1" vertex="1">
          <mxGeometry x="2100" y="430" width="100" height="40" as="geometry" />
        </mxCell>
        <mxCell id="6u1IUsdwqPgjuvoUIa0u-1" value="&lt;span style=&quot;font-size: 24px&quot;&gt;Бизнесс-процесс Клиента&amp;nbsp;&lt;br&gt;Кейс - доставка на такси&lt;br&gt;Бэк взаимодействие&lt;br&gt;&lt;/span&gt;" style="text;html=1;strokeColor=none;fillColor=none;align=center;verticalAlign=middle;whiteSpace=wrap;rounded=0;" vertex="1" parent="1">
          <mxGeometry x="620" y="820" width="470" height="60" as="geometry" />
        </mxCell>
        <mxCell id="6u1IUsdwqPgjuvoUIa0u-2" value="&lt;font style=&quot;font-size: 24px&quot;&gt;&lt;b&gt;Допустим, клиент выбрал &quot;Доставку на такси&quot;&lt;/b&gt;&lt;/font&gt;" style="text;html=1;strokeColor=none;fillColor=none;align=center;verticalAlign=middle;whiteSpace=wrap;rounded=0;" vertex="1" parent="1">
          <mxGeometry x="1890" y="520" width="440" height="40" as="geometry" />
        </mxCell>
        <mxCell id="6u1IUsdwqPgjuvoUIa0u-3" value="&lt;span style=&quot;font-size: 24px&quot;&gt;1. Алгоритм выбора&amp;nbsp; магазина для доставки клинету заказа.&lt;br&gt;&lt;/span&gt;" style="text;html=1;strokeColor=none;fillColor=none;align=center;verticalAlign=middle;whiteSpace=wrap;rounded=0;" vertex="1" parent="1">
          <mxGeometry x="110" y="1070" width="470" height="60" as="geometry" />
        </mxCell>
        <mxCell id="6u1IUsdwqPgjuvoUIa0u-4" value="&lt;font style=&quot;font-size: 24px&quot;&gt;&quot;Реализация данного алгоритма валидна для системы-доставки Клиент-Такси&quot;&lt;/font&gt;" style="text;html=1;strokeColor=none;fillColor=none;align=center;verticalAlign=middle;whiteSpace=wrap;rounded=0;" vertex="1" parent="1">
          <mxGeometry x="640" y="1070" width="470" height="60" as="geometry" />
        </mxCell>
      </root>
    </mxGraphModel>
  </diagram>
</mxfile>
